{
  "accessors": [
    {
      "bufferView": 1,
      "componentType": 5126,
      "count": 65532,
      "max": [
        511.5199890136719,
        0.6087999939918518,
        421.11248779296875
      ],
      "min": [
        26.549100875854492,
        -69.697998046875,
        -0.3425999879837036
      ],
      "type": "VEC3"
    },
    {
      "bufferView": 1,
      "byteOffset": 786384,
      "componentType": 5126,
      "count": 65532,
      "max": [
        0.9999969005584717,
        0.9999997615814209,
        0.9998286366462708
      ],
      "min": [
        -0.9998636245727539,
        -0.999996542930603,
        -0.9999869465827942
      ],
      "type": "VEC3"
    },
    {
      "bufferView": 0,
      "componentType": 5125,
      "count": 323139,
      "type": "SCALAR"
    },
    {
      "bufferView": 1,
      "byteOffset": 1572768,
      "componentType": 5126,
      "count": 65532,
      "max": [
        502.2090148925781,
        0.2150000035762787,
        400.4808044433594
      ],
      "min": [
        36.46049880981445,
        -64.88710021972656,
        182.06039428710938
      ],
      "type": "VEC3"
    },
    {
      "bufferView": 1,
      "byteOffset": 2359152,
      "componentType": 5126,
      "count": 65532,
      "max": [
        0.9999282956123352,
        0.9999997615814209,
        0.9999535083770752
      ],
      "min": [
        -0.9997442960739136,
        -0.9999879598617554,
        -0.9999908208847046
      ],
      "type": "VEC3"
    },
    {
      "bufferView": 0,
      "byteOffset": 1292556,
      "componentType": 5125,
      "count": 311391,
      "type": "SCALAR"
    },
    {
      "bufferView": 1,
      "byteOffset": 3145536,
      "componentType": 5126,
      "count": 65532,
      "max": [
        511.464111328125,
        0.32919999957084656,
        427.1629943847656
      ],
      "min": [
        -0.5382999777793884,
        -65.2031021118164,
        -0.5343999862670898
      ],
      "type": "VEC3"
    },
    {
      "bufferView": 1,
      "byteOffset": 3931920,
      "componentType": 5126,
      "count": 65532,
      "max": [
        0.9999986886978149,
        0.9999593496322632,
        0.9999889731407166
      ],
      "min": [
        -0.9999978542327881,
        -0.9999864101409912,
        -0.9999992251396179
      ],
      "type": "VEC3"
    },
    {
      "bufferView": 0,
      "byteOffset": 2538120,
      "componentType": 5125,
      "count": 297993,
      "type": "SCALAR"
    },
    {
      "bufferView": 1,
      "byteOffset": 4718304,
      "componentType": 5126,
      "count": 65532,
      "max": [
        510.9389953613281,
        0.5776000022888184,
        426.9570007324219
      ],
      "min": [
        0.29339998960494995,
        -55.25170135498047,
        -0.3418000042438507
      ],
      "type": "VEC3"
    },
    {
      "bufferView": 1,
      "byteOffset": 5504688,
      "componentType": 5126,
      "count": 65532,
      "max": [
        0.9999117851257324,
        1.0,
        0.9999889731407166
      ],
      "min": [
        -0.9998957514762878,
        -0.9999558329582214,
        -0.9998467564582825
      ],
      "type": "VEC3"
    },
    {
      "bufferView": 0,
      "byteOffset": 3730092,
      "componentType": 5125,
      "count": 224541,
      "type": "SCALAR"
    },
    {
      "bufferView": 1,
      "byteOffset": 6291072,
      "componentType": 5126,
      "count": 65532,
      "max": [
        507.6199951171875,
        -26.21780014038086,
        405.968994140625
      ],
      "min": [
        36.280799865722656,
        -65.69740295410156,
        22.066499710083008
      ],
      "type": "VEC3"
    },
    {
      "bufferView": 1,
      "byteOffset": 7077456,
      "componentType": 5126,
      "count": 65532,
      "max": [
        0.999849796295166,
        0.9995864629745483,
        0.9999982118606567
      ],
      "min": [
        -0.9999626278877258,
        -0.999991774559021,
        -0.9998874664306641
      ],
      "type": "VEC3"
    },
    {
      "bufferView": 0,
      "byteOffset": 4628256,
      "componentType": 5125,
      "count": 261756,
      "type": "SCALAR"
    },
    {
      "bufferView": 1,
      "byteOffset": 7863840,
      "componentType": 5126,
      "count": 43354,
      "max": [
        453.3236999511719,
        -39.9546012878418,
        400.1025085449219
      ],
      "min": [
        37.756900787353516,
        -67.50170135498047,
        169.99200439453125
      ],
      "type": "VEC3"
    },
    {
      "bufferView": 1,
      "byteOffset": 8384088,
      "componentType": 5126,
      "count": 43354,
      "max": [
        0.9999106526374817,
        0.9999512434005737,
        0.9999945759773254
      ],
      "min": [
        -0.9999626278877258,
        -0.9999924898147583,
        -0.9998467564582825
      ],
      "type": "VEC3"
    },
    {
      "bufferView": 0,
      "byteOffset": 5675280,
      "componentType": 5125,
      "count": 148656,
      "type": "SCALAR"
    },
    {
      "bufferView": 1,
      "byteOffset": 8904336,
      "componentType": 5126,
      "count": 65532,
      "max": [
        403.9200134277344,
        0.5196999907493591,
        410.4921875
      ],
      "min": [
        35.36869812011719,
        -63.25080108642578,
        163.27490234375
      ],
      "type": "VEC3"
    },
    {
      "bufferView": 1,
      "byteOffset": 9690720,
      "componentType": 5126,
      "count": 65532,
      "max": [
        0.9999794363975525,
        0.9999882578849792,
        0.9999943375587463
      ],
      "min": [
        -0.9999272227287292,
        -0.999987781047821,
        -0.9999845623970032
      ],
      "type": "VEC3"
    },
    {
      "bufferView": 0,
      "byteOffset": 6269904,
      "componentType": 5125,
      "count": 219879,
      "type": "SCALAR"
    },
    {
      "bufferView": 1,
      "byteOffset": 10477104,
      "componentType": 5126,
      "count": 65534,
      "max": [
        511.4722900390625,
        0.22130000591278076,
        399.034912109375
      ],
      "min": [
        39.37110137939453,
        -50.33890151977539,
        171.331298828125
      ],
      "type": "VEC3"
    },
    {
      "bufferView": 1,
      "byteOffset": 11263512,
      "componentType": 5126,
      "count": 65534,
      "max": [
        0.9999836087226868,
        0.9999755024909973,
        0.9999061822891235
      ],
      "min": [
        -0.999884843826294,
        -0.9999997019767761,
        -0.9999939799308777
      ],
      "type": "VEC3"
    },
    {
      "bufferView": 0,
      "byteOffset": 7149420,
      "componentType": 5125,
      "count": 195249,
      "type": "SCALAR"
    },
    {
      "bufferView": 1,
      "byteOffset": 12049920,
      "componentType": 5126,
      "count": 65532,
      "max": [
        485.1268005371094,
        0.41589999198913574,
        398.47589111328125
      ],
      "min": [
        40.01390075683594,
        -42.45309829711914,
        165.86219787597656
      ],
      "type": "VEC3"
    },
    {
      "bufferView": 1,
      "byteOffset": 12836304,
      "componentType": 5126,
      "count": 65532,
      "max": [
        0.9999265074729919,
        0.9999949932098389,
        0.9999860525131226
      ],
      "min": [
        -0.9999719858169556,
        -0.999983012676239,
        -0.9999026656150818
      ],
      "type": "VEC3"
    },
    {
      "bufferView": 0,
      "byteOffset": 7930416,
      "componentType": 5125,
      "count": 179892,
      "type": "SCALAR"
    },
    {
      "bufferView": 1,
      "byteOffset": 13622688,
      "componentType": 5126,
      "count": 65532,
      "max": [
        511.4381103515625,
        0.5264999866485596,
        398.7943115234375
      ],
      "min": [
        39.5609016418457,
        -37.003700256347656,
        11.84689998626709
      ],
      "type": "VEC3"
    },
    {
      "bufferView": 1,
      "byteOffset": 14409072,
      "componentType": 5126,
      "count": 65532,
      "max": [
        0.9999865889549255,
        0.999994695186615,
        0.9999885559082031
      ],
      "min": [
        -0.9999951124191284,
        -0.9999817609786987,
        -0.9999659657478333
      ],
      "type": "VEC3"
    },
    {
      "bufferView": 0,
      "byteOffset": 8649984,
      "componentType": 5125,
      "count": 186207,
      "type": "SCALAR"
    },
    {
      "bufferView": 1,
      "byteOffset": 15195456,
      "componentType": 5126,
      "count": 65532,
      "max": [
        511.3960876464844,
        0.5390999913215637,
        419.1680908203125
      ],
      "min": [
        -0.044199999421834946,
        -31.097900390625,
        0.08460000157356262
      ],
      "type": "VEC3"
    },
    {
      "bufferView": 1,
      "byteOffset": 15981840,
      "componentType": 5126,
      "count": 65532,
      "max": [
        0.9999670386314392,
        0.9999999403953552,
        0.9999256134033203
      ],
      "min": [
        -0.9999242424964905,
        -0.9999560713768005,
        -0.9999719262123108
      ],
      "type": "VEC3"
    },
    {
      "bufferView": 0,
      "byteOffset": 9394812,
      "componentType": 5125,
      "count": 213219,
      "type": "SCALAR"
    },
    {
      "bufferView": 1,
      "byteOffset": 16768224,
      "componentType": 5126,
      "count": 65534,
      "max": [
        511.427001953125,
        0.5390999913215637,
        419.1680908203125
      ],
      "min": [
        0.12070000171661377,
        -30.12459945678711,
        0.32420000433921814
      ],
      "type": "VEC3"
    },
    {
      "bufferView": 1,
      "byteOffset": 17554632,
      "componentType": 5126,
      "count": 65534,
      "max": [
        0.9999770522117615,
        0.9999999403953552,
        0.9999901652336121
      ],
      "min": [
        -0.9999954104423523,
        -0.9999977946281433,
        -0.9999026656150818
      ],
      "type": "VEC3"
    },
    {
      "bufferView": 0,
      "byteOffset": 10247688,
      "componentType": 5125,
      "count": 125796,
      "type": "SCALAR"
    },
    {
      "bufferView": 1,
      "byteOffset": 18341040,
      "componentType": 5126,
      "count": 61938,
      "max": [
        511.1575012207031,
        -13.7677001953125,
        414.73651123046875
      ],
      "min": [
        33.957401275634766,
        -31.57069969177246,
        15.355500221252441
      ],
      "type": "VEC3"
    },
    {
      "bufferView": 1,
      "byteOffset": 19084296,
      "componentType": 5126,
      "count": 61938,
      "max": [
        0.9999701380729675,
        0.999982476234436,
        0.9999633431434631
      ],
      "min": [
        -0.9999994039535522,
        -0.999965250492096,
        -0.9999525547027588
      ],
      "type": "VEC3"
    },
    {
      "bufferView": 0,
      "byteOffset": 10750872,
      "componentType": 5125,
      "count": 111642,
      "type": "SCALAR"
    },
    {
      "bufferView": 1,
      "byteOffset": 19827552,
      "componentType": 5126,
      "count": 65533,
      "max": [
        423.70001220703125,
        -5.384399890899658,
        387.4039001464844
      ],
      "min": [
        51.74800109863281,
        -55.76129913330078,
        258.525390625
      ],
      "type": "VEC3"
    },
    {
      "bufferView": 1,
      "byteOffset": 20613948,
      "componentType": 5126,
      "count": 65533,
      "max": [
        0.9999191164970398,
        0.9999907612800598,
        0.9999895095825195
      ],
      "min": [
        -0.9999876022338867,
        -0.9999588131904602,
        -0.9999744296073914
      ],
      "type": "VEC3"
    },
    {
      "bufferView": 0,
      "byteOffset": 11197440,
      "componentType": 5125,
      "count": 248127,
      "type": "SCALAR"
    },
    {
      "bufferView": 1,
      "byteOffset": 21400344,
      "componentType": 5126,
      "count": 65532,
      "max": [
        471.9956970214844,
        -1.1305999755859375,
        387.4039001464844
      ],
      "min": [
        53.032798767089844,
        -37.760398864746094,
        130.80499267578125
      ],
      "type": "VEC3"
    },
    {
      "bufferView": 1,
      "byteOffset": 22186728,
      "componentType": 5126,
      "count": 65532,
      "max": [
        0.9999441504478455,
        0.9999797940254211,
        0.9999610781669617
      ],
      "min": [
        -0.9999369382858276,
        -0.9999804496765137,
        -0.9999106526374817
      ],
      "type": "VEC3"
    },
    {
      "bufferView": 0,
      "byteOffset": 12189948,
      "componentType": 5125,
      "count": 238506,
      "type": "SCALAR"
    },
    {
      "bufferView": 1,
      "byteOffset": 22973112,
      "componentType": 5126,
      "count": 65532,
      "max": [
        509.0018005371094,
        -0.016699999570846558,
        372.927001953125
      ],
      "min": [
        58.782901763916016,
        -29.042800903320313,
        15.114800453186035
      ],
      "type": "VEC3"
    },
    {
      "bufferView": 1,
      "byteOffset": 23759496,
      "componentType": 5126,
      "count": 65532,
      "max": [
        0.9999653697013855,
        0.9999982714653015,
        0.9999313354492188
      ],
      "min": [
        -0.9999328851699829,
        -0.9999858140945435,
        -0.9999340176582336
      ],
      "type": "VEC3"
    },
    {
      "bufferView": 0,
      "byteOffset": 13143972,
      "componentType": 5125,
      "count": 255183,
      "type": "SCALAR"
    },
    {
      "bufferView": 1,
      "byteOffset": 24545880,
      "componentType": 5126,
      "count": 65532,
      "max": [
        508.6715087890625,
        -0.016699999570846558,
        382.7567138671875
      ],
      "min": [
        53.25699996948242,
        -29.435699462890625,
        15.114800453186035
      ],
      "type": "VEC3"
    },
    {
      "bufferView": 1,
      "byteOffset": 25332264,
      "componentType": 5126,
      "count": 65532,
      "max": [
        0.9999972581863403,
        0.9999960064888,
        0.9999721050262451
      ],
      "min": [
        -0.9999812841415405,
        -0.9999858140945435,
        -0.9999628067016602
      ],
      "type": "VEC3"
    },
    {
      "bufferView": 0,
      "byteOffset": 14164704,
      "componentType": 5125,
      "count": 150936,
      "type": "SCALAR"
    },
    {
      "bufferView": 1,
      "byteOffset": 26118648,
      "componentType": 5126,
      "count": 38457,
      "max": [
        500.3826904296875,
        -18.88330078125,
        386.5071105957031
      ],
      "min": [
        50.359798431396484,
        -31.092300415039063,
        27.195100784301758
      ],
      "type": "VEC3"
    },
    {
      "bufferView": 1,
      "byteOffset": 26580132,
      "componentType": 5126,
      "count": 38457,
      "max": [
        0.9999854564666748,
        0.9999094009399414,
        0.9999687075614929
      ],
      "min": [
        -0.9998123645782471,
        -0.9999858140945435,
        -0.9997604489326477
      ],
      "type": "VEC3"
    },
    {
      "bufferView": 0,
      "byteOffset": 14768448,
      "componentType": 5125,
      "count": 75879,
      "type": "SCALAR"
    }
  ],
  "asset": {
    "extras": {
      "author": "Glasgow Life Sciences (https://sketchfab.com/GLS)",
      "license": "CC-BY-4.0 (http://creativecommons.org/licenses/by/4.0/)",
      "source": "https://sketchfab.com/3d-models/prostate-cancer-cells-79074dd4d9c64bd9af4c0e34eff4d2b8",
      "title": "Prostate Cancer Cells"
    },
    "generator": "Sketchfab-12.67.0",
    "version": "2.0"
  },
  "bufferViews": [
    {
      "buffer": 0,
      "byteLength": 15071964,
      "name": "floatBufferViews",
      "target": 34963
    },
    {
      "buffer": 0,
      "byteLength": 27041616,
      "byteOffset": 15071964,
      "byteStride": 12,
      "name": "floatBufferViews",
      "target": 34962
    }
  ],
  "buffers": [
    {
      "byteLength": 42113580,
      "uri": "scene.bin"
    }
  ],
  "extensionsUsed": [
    "KHR_materials_transmission"
  ],
  "materials": [
    {
      "alphaMode": "BLEND",
      "doubleSided": true,
      "name": "Material__25",
      "pbrMetallicRoughness": {
        "baseColorFactor": [
          0.3906510902153983,
          0.4647147052786331,
          0.5779035199615054,
          0.44683689024390244
        ],
        "roughnessFactor": 0.6
      }
    },
    {
      "alphaMode": "BLEND",
      "doubleSided": true,
      "extensions": {
        "KHR_materials_transmission": {
          "transmissionFactor": 0.6202362804878049
        }
      },
      "name": "Material__26",
      "pbrMetallicRoughness": {
        "baseColorFactor": [
          0.0,
          0.37402027996618775,
          0.8103699510436352,
          0.3797637195121951
        ],
        "metallicFactor": 0.0,
        "roughnessFactor": 0.6
      }
    },
    {
      "doubleSided": true,
      "name": "Material__27",
      "pbrMetallicRoughness": {
        "baseColorFactor": [
          0.009817323961071774,
          0.0015002229422214752,
          0.04825934533322086,
          1.0
        ],
        "metallicFactor": 0.0,
        "roughnessFactor": 0.6
      }
    }
  ],
  "meshes": [
    {
      "name": "Object_0",
      "primitives": [
        {
          "attributes": {
            "NORMAL": 1,
            "POSITION": 0
          },
          "indices": 2,
          "material": 0,
          "mode": 4
        }
      ]
    },
    {
      "name": "Object_1",
      "primitives": [
        {
          "attributes": {
            "NORMAL": 4,
            "POSITION": 3
          },
          "indices": 5,
          "material": 0,
          "mode": 4
        }
      ]
    },
    {
      "name": "Object_2",
      "primitives": [
        {
          "attributes": {
            "NORMAL": 7,
            "POSITION": 6
          },
          "indices": 8,
          "material": 0,
          "mode": 4
        }
      ]
    },
    {
      "name": "Object_3",
      "primitives": [
        {
          "attributes": {
            "NORMAL": 10,
            "POSITION": 9
          },
          "indices": 11,
          "material": 0,
          "mode": 4
        }
      ]
    },
    {
      "name": "Object_4",
      "primitives": [
        {
          "attributes": {
            "NORMAL": 13,
            "POSITION": 12
          },
          "indices": 14,
          "material": 0,
          "mode": 4
        }
      ]
    },
    {
      "name": "Object_5",
      "primitives": [
        {
          "attributes": {
            "NORMAL": 16,
            "POSITION": 15
          },
          "indices": 17,
          "material": 0,
          "mode": 4
        }
      ]
    },
    {
      "name": "Object_6",
      "primitives": [
        {
          "attributes": {
            "NORMAL": 19,
            "POSITION": 18
          },
          "indices": 20,
          "material": 1,
          "mode": 4
        }
      ]
    },
    {
      "name": "Object_7",
      "primitives": [
        {
          "attributes": {
            "NORMAL": 22,
            "POSITION": 21
          },
          "indices": 23,
          "material": 1,
          "mode": 4
        }
      ]
    },
    {
      "name": "Object_8",
      "primitives": [
        {
          "attributes": {
            "NORMAL": 25,
            "POSITION": 24
          },
          "indices": 26,
          "material": 1,
          "mode": 4
        }
      ]
    },
    {
      "name": "Object_9",
      "primitives": [
        {
          "attributes": {
            "NORMAL": 28,
            "POSITION": 27
          },
          "indices": 29,
          "material": 1,
          "mode": 4
        }
      ]
    },
    {
      "name": "Object_10",
      "primitives": [
        {
          "attributes": {
            "NORMAL": 31,
            "POSITION": 30
          },
          "indices": 32,
          "material": 1,
          "mode": 4
        }
      ]
    },
    {
      "name": "Object_11",
      "primitives": [
        {
          "attributes": {
            "NORMAL": 34,
            "POSITION": 33
          },
          "indices": 35,
          "material": 1,
          "mode": 4
        }
      ]
    },
    {
      "name": "Object_12",
      "primitives": [
        {
          "attributes": {
            "NORMAL": 37,
            "POSITION": 36
          },
          "indices": 38,
          "material": 1,
          "mode": 4
        }
      ]
    },
    {
      "name": "Object_13",
      "primitives": [
        {
          "attributes": {
            "NORMAL": 40,
            "POSITION": 39
          },
          "indices": 41,
          "material": 2,
          "mode": 4
        }
      ]
    },
    {
      "name": "Object_14",
      "primitives": [
        {
          "attributes": {
            "NORMAL": 43,
            "POSITION": 42
          },
          "indices": 44,
          "material": 2,
          "mode": 4
        }
      ]
    },
    {
      "name": "Object_15",
      "primitives": [
        {
          "attributes": {
            "NORMAL": 46,
            "POSITION": 45
          },
          "indices": 47,
          "material": 2,
          "mode": 4
        }
      ]
    },
    {
      "name": "Object_16",
      "primitives": [
        {
          "attributes": {
            "NORMAL": 49,
            "POSITION": 48
          },
          "indices": 50,
          "material": 2,
          "mode": 4
        }
      ]
    },
    {
      "name": "Object_17",
      "primitives": [
        {
          "attributes": {
            "NORMAL": 52,
            "POSITION": 51
          },
          "indices": 53,
          "material": 2,
          "mode": 4
        }
      ]
    }
  ],
  "nodes": [
    {
      "children": [
        1
      ],
      "matrix": [
        1.0,
        0.0,
        0.0,
        0.0,
        0.0,
        2.220446049250313e-16,
        -1.0,
        0.0,
        0.0,
        1.0,
        2.220446049250313e-16,
        0.0,
        0.0,
        0.0,
        0.0,
        1.0
      ],
      "name": "Sketchfab_model"
    },
    {
      "children": [
        2,
        3,
        4,
        5,
        6,
        7,
        8,
        9,
        10,
        11,
        12,
        13,
        14,
        15,
        16,
        17,
        18,
        19
      ],
      "name": "Prostate Cancer Cells _ final_anim.obj.cleaner.materialmerger.gles"
    },
    {
      "mesh": 0,
      "name": "Object_2"
    },
    {
      "mesh": 1,
      "name": "Object_3"
    },
    {
      "mesh": 2,
      "name": "Object_4"
    },
    {
      "mesh": 3,
      "name": "Object_5"
    },
    {
      "mesh": 4,
      "name": "Object_6"
    },
    {
      "mesh": 5,
      "name": "Object_7"
    },
    {
      "mesh": 6,
      "name": "Object_8"
    },
    {
      "mesh": 7,
      "name": "Object_9"
    },
    {
      "mesh": 8,
      "name": "Object_10"
    },
    {
      "mesh": 9,
      "name": "Object_11"
    },
    {
      "mesh": 10,
      "name": "Object_12"
    },
    {
      "mesh": 11,
      "name": "Object_13"
    },
    {
      "mesh": 12,
      "name": "Object_14"
    },
    {
      "mesh": 13,
      "name": "Object_15"
    },
    {
      "mesh": 14,
      "name": "Object_16"
    },
    {
      "mesh": 15,
      "name": "Object_17"
    },
    {
      "mesh": 16,
      "name": "Object_18"
    },
    {
      "mesh": 17,
      "name": "Object_19"
    }
  ],
  "scene": 0,
  "scenes": [
    {
      "name": "Sketchfab_Scene",
      "nodes": [
        0
      ]
    }
  ]
}
